PathFileType	4	(X/Y/Z)	max-elbow-flex-wide_P0_1-783_filt_butterworth_LSTM.trc
DataRate	CameraRate	NumFrames	NumMarkers	Units	OrigDataRate	OrigDataStartFrame	OrigNumFrames
60	60	64	3	m	60	587	782
Frame#	Time	r_acromion			r_humerus_epicondyle			r_radius_styloid		
X1	Y1	Z1	X2	Y2	Z2	X3	Y3	Z3
587	9.7833	0.007900000000000018	0.8258999999999999	0.1917000000000001	0.27360000000000007	0.7402	0.2411000000000002	0.48840000000000006	0.7223999999999999	0.3265000000000001
588	9.8	0.007599999999999996	0.8259999999999998	0.19190000000000007	0.27370000000000005	0.7402	0.24130000000000018	0.48830000000000007	0.7223999999999999	0.32640000000000013
589	9.8167	0.007400000000000018	0.8259999999999998	0.19210000000000005	0.27370000000000005	0.74	0.24150000000000016	0.48819999999999997	0.7224999999999999	0.32620000000000016
590	9.8333	0.007099999999999995	0.8262	0.19230000000000025	0.27380000000000004	0.7399	0.24160000000000015	0.4881	0.7226999999999999	0.3259000000000002
591	9.85	0.006800000000000028	0.8263	0.19230000000000025	0.27390000000000003	0.7397	0.24160000000000015	0.4881	0.7228999999999999	0.3256000000000002
592	9.8667	0.006500000000000006	0.8263	0.19220000000000026	0.2741	0.7396	0.24150000000000016	0.48830000000000007	0.7230999999999999	0.32550000000000023
593	9.8833	0.006300000000000028	0.8260999999999998	0.19210000000000005	0.2742	0.7395	0.24130000000000018	0.48860000000000003	0.7231999999999998	0.32550000000000023
594	9.9	0.006300000000000028	0.8258999999999999	0.19210000000000005	0.2743	0.7393999999999998	0.2411000000000002	0.4888	0.7234	0.3256000000000002
595	9.9167	0.006300000000000028	0.8257999999999999	0.19220000000000026	0.2742	0.7393999999999998	0.2411000000000002	0.4889	0.7236	0.3259000000000002
596	9.9333	0.006300000000000028	0.8256999999999999	0.19230000000000025	0.274	0.7395	0.2411000000000002	0.4887	0.7237	0.32620000000000016
597	9.95	0.006300000000000028	0.8257999999999999	0.19240000000000024	0.27380000000000004	0.7397	0.2412000000000002	0.48819999999999997	0.7238	0.3265000000000001
598	9.9667	0.006500000000000006	0.8257999999999999	0.19250000000000023	0.27360000000000007	0.7399	0.2411000000000002	0.48760000000000003	0.7237	0.3268000000000001
599	9.9833	0.006700000000000039	0.8257999999999999	0.19260000000000022	0.27349999999999997	0.7401	0.24090000000000023	0.4869	0.7235	0.32710000000000006
600	10.0	0.007099999999999995	0.8256999999999999	0.1927000000000002	0.2733	0.7404	0.24080000000000024	0.48630000000000007	0.7231999999999998	0.32730000000000026
601	10.0167	0.007400000000000018	0.8254999999999999	0.1927000000000002	0.2732	0.7404999999999999	0.24060000000000026	0.486	0.7229999999999999	0.32750000000000024
602	10.0333	0.007599999999999996	0.8252999999999999	0.1928000000000002	0.2731	0.7405999999999999	0.24040000000000006	0.486	0.7227999999999999	0.32740000000000025
603	10.05	0.00770000000000004	0.8251	0.19290000000000018	0.2731	0.7405999999999999	0.24040000000000006	0.48619999999999997	0.7228999999999999	0.32710000000000006
604	10.0667	0.007599999999999996	0.825	0.19310000000000016	0.2732	0.7404999999999999	0.24040000000000006	0.48630000000000007	0.7229999999999999	0.3268000000000001
605	10.0833	0.007400000000000018	0.825	0.19340000000000013	0.2734	0.7404	0.24040000000000006	0.48630000000000007	0.7232999999999998	0.3265000000000001
606	10.1	0.007099999999999995	0.8251999999999999	0.1937000000000001	0.27360000000000007	0.7403	0.24030000000000007	0.48630000000000007	0.7236	0.3265000000000001
607	10.1167	0.006800000000000028	0.8254999999999999	0.19410000000000005	0.27370000000000005	0.7402	0.24020000000000008	0.48619999999999997	0.7238	0.3267000000000001
608	10.1333	0.006500000000000006	0.8257999999999999	0.19440000000000024	0.27360000000000007	0.7401	0.2401000000000001	0.48619999999999997	0.7239	0.3269000000000001
609	10.15	0.006099999999999994	0.8259999999999998	0.1947000000000002	0.27349999999999997	0.74	0.2400000000000001	0.48619999999999997	0.724	0.32700000000000007
610	10.1667	0.005800000000000027	0.8260999999999998	0.1948000000000002	0.2733	0.74	0.2400000000000001	0.4867	0.7241	0.3269000000000001
611	10.1833	0.005700000000000038	0.8258999999999999	0.19460000000000022	0.2732	0.74	0.2399000000000001	0.48730000000000007	0.7243999999999999	0.3266000000000001
612	10.2	0.005700000000000038	0.8254999999999999	0.19400000000000006	0.2734	0.74	0.23980000000000012	0.488	0.7247999999999999	0.32620000000000016
613	10.2167	0.005900000000000016	0.8251999999999999	0.19320000000000015	0.27370000000000005	0.7401	0.23960000000000015	0.48850000000000005	0.7254	0.3259000000000002
614	10.2333	0.006200000000000039	0.825	0.19220000000000026	0.2743	0.7402	0.23940000000000017	0.4887	0.7262	0.3256000000000002
615	10.25	0.006500000000000006	0.8249	0.19150000000000011	0.27490000000000003	0.7402	0.23930000000000018	0.4887	0.7275	0.32510000000000006
616	10.2667	0.006800000000000028	0.8249	0.19140000000000013	0.2754	0.7399	0.2391000000000002	0.48830000000000007	0.7291999999999998	0.32440000000000013
617	10.2833	0.007000000000000006	0.8249	0.19190000000000007	0.27580000000000005	0.7396	0.2391000000000002	0.48760000000000003	0.7310999999999999	0.3236000000000002
618	10.3	0.007300000000000029	0.8249	0.1927000000000002	0.2761	0.7392999999999998	0.2391000000000002	0.4868	0.7329999999999999	0.32320000000000004
619	10.3167	0.007599999999999996	0.8248	0.19340000000000013	0.276	0.7389999999999999	0.2391000000000002	0.4859	0.7347999999999999	0.32320000000000004
620	10.3333	0.008000000000000007	0.8247	0.19410000000000005	0.27570000000000006	0.7386999999999999	0.2391000000000002	0.48519999999999996	0.7368999999999999	0.3236000000000002
621	10.35	0.008500000000000008	0.8246	0.19460000000000022	0.2751	0.7383	0.2391000000000002	0.48450000000000004	0.7397	0.32430000000000014
622	10.3667	0.009000000000000008	0.8244	0.19500000000000017	0.2743	0.7377	0.2391000000000002	0.4838	0.7433999999999998	0.32510000000000006
623	10.3833	0.00940000000000002	0.8242	0.19530000000000014	0.27349999999999997	0.7370999999999999	0.2390000000000002	0.4831	0.748	0.3258000000000002
624	10.4	0.009599999999999997	0.8238999999999999	0.19540000000000013	0.27290000000000003	0.7364999999999999	0.2390000000000002	0.48230000000000006	0.7531999999999999	0.32640000000000013
625	10.4167	0.009500000000000008	0.8236999999999999	0.19540000000000013	0.2724	0.7359	0.23890000000000022	0.48150000000000004	0.7584	0.3266000000000001
626	10.4333	0.009099999999999997	0.8234999999999999	0.19530000000000014	0.2721	0.7351999999999999	0.2390000000000002	0.48050000000000004	0.7631999999999999	0.3265000000000001
627	10.45	0.008599999999999997	0.8231999999999999	0.19510000000000016	0.27180000000000004	0.7344999999999999	0.2391000000000002	0.47920000000000007	0.7675999999999998	0.3259000000000002
628	10.4667	0.008400000000000019	0.823	0.1948000000000002	0.2714	0.7337	0.23930000000000018	0.47750000000000004	0.7716999999999998	0.3249000000000001
629	10.4833	0.008400000000000019	0.8229	0.19450000000000023	0.27080000000000004	0.7327999999999999	0.23940000000000017	0.4749	0.7759	0.32330000000000025
630	10.5	0.008599999999999997	0.8227	0.19440000000000024	0.26990000000000003	0.7318	0.23950000000000016	0.47140000000000004	0.7807	0.32110000000000005
631	10.5167	0.009000000000000008	0.8227	0.19450000000000023	0.26870000000000005	0.7305999999999999	0.23970000000000014	0.4668	0.7863	0.3184000000000001
632	10.5333	0.009500000000000008	0.8226	0.1947000000000002	0.26739999999999997	0.7291999999999998	0.24020000000000008	0.4615	0.7925	0.31520000000000026
633	10.55	0.00990000000000002	0.8225	0.19490000000000018	0.266	0.7272999999999998	0.24080000000000024	0.4557	0.7991999999999999	0.3117000000000002
634	10.5667	0.010099999999999998	0.8223	0.19540000000000013	0.26460000000000006	0.7248999999999999	0.24150000000000016	0.4496	0.8061	0.30820000000000014
635	10.5833	0.010200000000000042	0.8219999999999998	0.19610000000000005	0.26339999999999997	0.7222999999999999	0.24240000000000006	0.4435	0.8131999999999999	0.3046000000000001
636	10.6	0.010200000000000042	0.8215999999999999	0.19690000000000019	0.26250000000000007	0.7196	0.24340000000000017	0.4374	0.8203	0.30100000000000005
637	10.6167	0.00990000000000002	0.8212999999999999	0.1977000000000001	0.2619	0.7170999999999998	0.24460000000000004	0.4314	0.8273999999999999	0.2975000000000002
638	10.6333	0.009500000000000008	0.821	0.19830000000000025	0.26150000000000007	0.7148999999999999	0.2460000000000001	0.42569999999999997	0.8343	0.29410000000000014
639	10.65	0.008900000000000019	0.8206	0.1987000000000002	0.2613	0.7128999999999999	0.24750000000000016	0.4205	0.8407	0.29100000000000026
640	10.6667	0.008400000000000019	0.8204	0.1989000000000002	0.2611	0.7109999999999999	0.24870000000000025	0.41600000000000004	0.8464	0.2883000000000001
641	10.6833	0.008099999999999996	0.8200999999999998	0.1989000000000002	0.261	0.7093	0.24970000000000014	0.4125	0.851	0.28600000000000014
642	10.7	0.008099999999999996	0.8199999999999998	0.1987000000000002	0.2609	0.7077	0.2502000000000001	0.40990000000000004	0.8546	0.2843000000000001
643	10.7167	0.008500000000000008	0.8200999999999998	0.19810000000000005	0.26080000000000003	0.7063999999999999	0.2503000000000001	0.40759999999999996	0.8573999999999999	0.28280000000000005
644	10.7333	0.009000000000000008	0.8203	0.19740000000000013	0.26060000000000005	0.7053	0.2501000000000001	0.4051	0.8598999999999999	0.2812000000000002
645	10.75	0.009700000000000042	0.8205	0.1968000000000002	0.26039999999999996	0.7042999999999999	0.24980000000000013	0.40180000000000005	0.8623999999999998	0.2792000000000002
646	10.7667	0.010200000000000042	0.8207	0.19640000000000024	0.26	0.7033	0.24940000000000018	0.39780000000000004	0.8654999999999999	0.27660000000000007
647	10.7833	0.01050000000000001	0.8207	0.19640000000000024	0.25970000000000004	0.7022999999999999	0.24880000000000024	0.393	0.8691	0.2734000000000002
648	10.8	0.01050000000000001	0.8207	0.19650000000000023	0.25950000000000006	0.7015	0.2482000000000001	0.3879	0.8731	0.26980000000000015
649	10.8167	0.01040000000000002	0.8207	0.19660000000000022	0.25939999999999996	0.7007999999999999	0.24760000000000015	0.38280000000000003	0.877	0.2662000000000001
650	10.8333	0.01040000000000002	0.8207	0.19660000000000022	0.2593	0.7003999999999999	0.2472000000000002	0.3779	0.8807	0.2631000000000002
